<svg width="17" height="21" viewBox="0 0 17 21" fill="none" xmlns="http://www.w3.org/2000/svg">
<path d="M12.277 6.16906C12.277 7.76033 12.3026 9.35669 12.2617 10.948C12.2463 11.5123 12.4358 11.6445 12.9579 11.614C13.6593 11.5682 14.3658 11.6089 15.0723 11.6038C15.6405 11.5987 16.0603 11.8275 16.2754 12.3613C16.4801 12.8748 16.301 13.3069 15.9324 13.6729C13.6491 15.9455 11.3658 18.2231 9.06713 20.4803C8.47839 21.0599 7.86917 21.0446 7.27019 20.4549C4.99203 18.2129 2.72921 15.9505 0.456165 13.6984C0.0670839 13.312 -0.132576 12.8697 0.0978008 12.3257C0.328178 11.7919 0.758214 11.5885 1.32648 11.5987C1.98177 11.6089 2.64218 11.558 3.29236 11.614C3.9067 11.6648 4.11659 11.5123 4.10636 10.8412C4.07052 7.77559 4.09612 4.70998 4.09612 1.64437C4.09612 0.353051 4.43912 0.00734345 5.72411 0.00225952C7.42378 0.00225952 9.12857 -0.0028244 10.8282 0.00225952C11.8675 0.00734345 12.2719 0.414058 12.277 1.46135C12.2822 3.03228 12.277 4.60321 12.277 6.16906Z" fill="white"/>
</svg>
