<svg width="25" height="24" viewBox="0 0 25 24" fill="none" xmlns="http://www.w3.org/2000/svg">
<path d="M5.12407 7.36317C6.58715 7.32384 7.70024 7.734 8.66415 8.50935C8.98546 8.7678 9.19775 8.81837 9.56495 8.58239C11.0452 7.60477 12.5485 6.65524 14.0575 5.71133C14.3271 5.54277 14.4304 5.37984 14.3845 5.05396C14.0804 2.84588 15.3886 0.823218 17.5115 0.188325C19.5598 -0.424093 21.7803 0.497344 22.7786 2.36831C23.7999 4.27861 23.272 6.60467 21.4991 7.94188C19.8065 9.21729 17.3623 9.0993 15.7443 7.61601C15.4345 7.33508 15.2452 7.2789 14.8837 7.51487C13.4952 8.42507 12.0952 9.31842 10.678 10.1949C10.328 10.414 10.2248 10.6051 10.374 11.0152C10.6551 11.7962 10.7182 12.6165 10.5231 13.4368C10.4313 13.8076 10.5346 14.0043 10.8961 14.1784C12.2501 14.8358 13.587 15.5156 14.9181 16.2123C15.2452 16.3809 15.4058 16.364 15.641 16.055C16.9664 14.3077 19.0205 13.6391 21.0631 14.2402C23.0368 14.8189 24.4023 16.5607 24.5343 18.6508C24.6835 21.0106 22.6753 23.331 20.2598 23.6007C17.6664 23.8929 15.2452 22.1792 14.8206 19.7576C14.7976 19.6228 14.7345 19.4823 14.7575 19.3531C14.9238 18.4204 14.3271 18.0777 13.587 17.735C12.4108 17.1956 11.269 16.5888 10.1272 15.9707C9.71987 15.7516 9.47889 15.7572 9.13463 16.1112C7.5568 17.7406 5.1298 18.1844 3.11591 17.2686C1.06186 16.3303 -0.18893 14.2234 0.0233605 12.0603C0.252864 9.79599 1.81348 8.0374 4.07983 7.46993C4.49867 7.38003 4.91178 7.38003 5.12407 7.36317Z" fill="white"/>
</svg>
