<svg width="35" height="35" viewBox="0 0 35 35" fill="none" xmlns="http://www.w3.org/2000/svg">
<path d="M10.8386 34.9928C8.46802 34.9928 6.09748 35.0009 3.71885 34.9928C1.24314 34.9847 0.0619139 33.1466 1.09751 30.9037C1.48585 30.0616 1.84184 29.2032 2.27873 28.3854C2.73989 27.5028 2.64281 26.7255 2.18973 25.8348C-1.05459 19.4299 -0.722872 13.1788 3.37905 7.28401C7.44052 1.4459 14.8758 -1.21 21.7285 0.522811C28.7268 2.29611 33.9371 8.13422 34.8514 15.2274C36.2025 25.7133 28.1767 34.8389 17.4728 34.9766C15.256 35.0171 13.0473 34.9928 10.8386 34.9928ZM17.6023 19.2679C15.8871 19.2679 14.1719 19.2598 12.4567 19.2679C11.324 19.276 10.5635 19.9643 10.5392 20.9522C10.5149 21.9724 11.2997 22.7335 12.4567 22.7335C15.8385 22.7416 19.2123 22.7416 22.5942 22.7335C23.7511 22.7335 24.5359 21.9805 24.5116 20.9522C24.4874 19.9562 23.7268 19.276 22.5942 19.2598C20.9194 19.2598 19.2608 19.2679 17.6023 19.2679ZM14.002 15.7294C14.6007 15.7294 15.1994 15.7537 15.7981 15.7213C16.8013 15.6808 17.5052 14.9521 17.5133 14.0047C17.5133 13.0735 16.7932 12.2962 15.8062 12.2719C14.6088 12.2395 13.4033 12.2314 12.2059 12.2719C11.2269 12.3043 10.5068 13.1059 10.5311 14.0371C10.5554 14.944 11.2512 15.6728 12.1978 15.7213C12.7965 15.7537 13.3952 15.7294 14.002 15.7294Z" fill="#FF6900"/>
</svg>
