<svg width="15" height="26" viewBox="0 0 15 26" fill="none" xmlns="http://www.w3.org/2000/svg">
<path d="M3.67245 19.9392C3.67245 18.4687 3.6664 17.0043 3.6785 15.5338C3.68455 15.207 3.58773 15.0981 3.25491 15.1102C2.61952 15.1344 1.99018 15.1223 1.35479 15.1162C0.580216 15.1102 0.0537492 14.6866 0.0295438 13.9241C-0.0128156 12.5747 -0.00676425 11.2252 0.0295438 9.86974C0.0476978 9.14357 0.519702 8.70788 1.24586 8.67157C1.8752 8.64131 2.51664 8.63526 3.14598 8.66552C3.55142 8.68367 3.6906 8.5687 3.68455 8.1451C3.67245 7.01955 3.62404 5.88795 3.8782 4.76846C4.51964 1.93643 6.91597 0 9.82061 0C10.9885 0 12.1564 0 13.3243 0C14.0687 0 14.577 0.447799 14.5951 1.18001C14.6193 2.43264 14.6193 3.67921 14.5951 4.93184C14.583 5.66405 14.0626 6.1179 13.2759 6.14211C12.4772 6.17237 11.6784 6.18447 10.8735 6.18447C10.4378 6.18447 10.2805 6.40232 10.2866 6.80776C10.2926 7.27371 10.2987 7.73966 10.2745 8.20562C10.2563 8.54449 10.3531 8.67762 10.7162 8.66552C11.4666 8.64131 12.2169 8.64737 12.9673 8.65947C14.0142 8.67762 14.4438 9.10727 14.4499 10.1663C14.4559 11.3342 14.4559 12.5021 14.4438 13.67C14.4317 14.6745 13.9779 15.1102 12.9613 15.1102C12.2109 15.1102 11.4605 15.1283 10.7102 15.1041C10.3471 15.092 10.2684 15.2252 10.2745 15.558C10.2866 18.3779 10.2805 21.1978 10.2805 24.0117C10.2805 25.2401 9.85692 25.6637 8.6285 25.6637C7.4969 25.6637 6.35925 25.6698 5.22765 25.6637C4.10815 25.6577 3.6785 25.228 3.67245 24.1267C3.67245 22.7409 3.67245 21.3431 3.67245 19.9392ZM8.77373 19.1404C8.77373 17.6215 8.76768 16.1087 8.77373 14.5898C8.77978 13.9302 9.09445 13.6216 9.7601 13.6155C10.6799 13.6095 11.5937 13.6034 12.5135 13.6216C12.8342 13.6276 12.9492 13.5429 12.9431 13.204C12.9249 12.3568 12.9189 11.5036 12.9431 10.6564C12.9552 10.2812 12.8402 10.1663 12.465 10.1784C11.5634 10.2026 10.6617 10.1965 9.76615 10.1844C9.14286 10.1723 8.79188 9.88789 8.77978 9.35537C8.76163 8.40531 8.74953 7.45525 8.80399 6.50519C8.8645 5.45226 9.5362 4.82292 10.5952 4.68979C11.2911 4.60507 11.993 4.62928 12.695 4.63533C12.9855 4.64138 13.1065 4.56271 13.1004 4.24804C13.0823 3.44926 13.0823 2.65049 13.1004 1.84566C13.1065 1.5673 13.0218 1.46442 12.7374 1.47048C11.7691 1.48863 10.8009 1.45837 9.83877 1.48863C7.37587 1.57335 5.67544 3.08618 5.28211 5.51277C5.09452 6.68673 5.21554 7.87884 5.19134 9.05886C5.17318 9.87579 4.88877 10.1784 4.07789 10.1844C3.36383 10.1905 2.64372 10.1905 1.92966 10.1844C1.67551 10.1784 1.52422 10.2207 1.53028 10.5293C1.54238 11.4431 1.54238 12.3629 1.53028 13.2827C1.52422 13.549 1.6271 13.6216 1.88125 13.6216C2.58321 13.6095 3.27911 13.6155 3.98107 13.6155C4.92508 13.6155 5.19134 13.8818 5.19134 14.8379C5.19134 17.7909 5.19739 20.7379 5.18529 23.691C5.18529 24.0601 5.27606 24.1812 5.65729 24.1691C6.54079 24.1388 7.42428 24.1448 8.30778 24.1691C8.67086 24.1812 8.79794 24.0783 8.79189 23.697C8.76163 22.1782 8.77373 20.6593 8.77373 19.1404Z" fill="#FF8127"/>
</svg>
