<svg width="25" height="25" viewBox="0 0 25 25" fill="none" xmlns="http://www.w3.org/2000/svg">
<path d="M11.7239 0.00692466C13.6801 0.00692466 15.0286 0.00692466 16.377 0.00692466C17.1114 0.00692466 17.8457 0.0892239 18.5674 0.177854C19.4411 0.285476 20.2767 0.564027 21.0807 0.975523C22.5748 1.73521 23.5307 2.91905 24.0688 4.47641C24.3474 5.28674 24.4487 6.11606 24.5183 6.95805C24.7336 9.57896 24.5879 12.1999 24.6449 14.8208C24.6702 16.011 24.6069 17.2011 24.4677 18.3723C24.2461 20.2082 23.5687 21.8669 22.024 23.0444C21.4163 23.5129 20.7262 23.8104 20.0108 24.0636C18.9789 24.4245 17.9027 24.4625 16.8265 24.5258C14.3132 24.6777 11.8062 24.6271 9.29928 24.5954C8.38766 24.5827 7.46337 24.5701 6.55175 24.4751C4.59556 24.2789 2.86094 23.6141 1.60113 22.0061C1.01871 21.2655 0.695841 20.4108 0.429952 19.5245C0.157731 18.6129 0.183054 17.6759 0.113416 16.7453C-0.0828359 14.0041 0.0311169 11.2566 0.050109 8.5154C0.0564397 7.81269 0.0880933 7.09732 0.164062 6.39461C0.372975 4.39411 1.11367 2.65949 2.78498 1.43133C3.43704 0.9502 4.15241 0.633665 4.93109 0.418421C5.65279 0.222169 6.38715 0.184185 7.12151 0.101885C8.85613 -0.0943667 10.5907 0.0639011 11.7239 0.00692466ZM11.7113 2.20368C10.3185 2.27332 8.32435 2.05174 6.33651 2.34296C5.7161 2.43792 5.11468 2.57719 4.55757 2.87474C3.22813 3.59644 2.55707 4.77395 2.37348 6.21735C2.27219 7.02135 2.18989 7.83801 2.19622 8.66734C2.22154 11.0793 2.20255 13.4913 2.20255 15.9097C2.20255 16.8719 2.28485 17.8279 2.46844 18.7775C2.68368 19.8727 3.27244 20.7273 4.09543 21.4237C4.73483 21.9682 5.54517 22.1771 6.34284 22.2594C7.33676 22.3607 8.33701 22.4556 9.34359 22.4366C12.2177 22.3733 15.0982 22.5506 17.9724 22.2974C18.6497 22.2341 19.2828 22.0441 19.9032 21.7782C20.397 21.563 20.7136 21.1642 21.0871 20.8096C21.3909 20.5184 21.6568 20.2209 21.8278 19.8474C22.2709 18.8598 22.4038 17.8026 22.4102 16.7327C22.4292 13.8269 22.4165 10.9211 22.4165 8.01527C22.4165 7.26192 22.3026 6.52123 22.157 5.7742C22.005 4.98919 21.7011 4.31814 21.144 3.74204C20.5743 3.15962 19.9159 2.7228 19.1309 2.51389C18.2699 2.28598 17.3899 2.19102 16.4973 2.20368C15.1045 2.21634 13.7055 2.20368 11.7113 2.20368Z" fill="#FF8127"/>
<path d="M12.319 18.5557C8.97641 18.695 6.0263 15.7322 6.05162 12.3073C6.07695 8.66717 8.96375 5.97662 12.2937 6.00827C15.9845 6.03992 18.5991 8.74314 18.6181 12.2947C18.6371 15.8399 15.8009 18.638 12.319 18.5557ZM12.2937 8.16704C9.91336 8.24934 8.2104 9.98396 8.20407 12.2503C8.19774 14.7003 9.99566 16.4223 12.3 16.4096C14.7564 16.4033 16.4403 14.6497 16.4403 12.2503C16.4403 9.96496 14.7057 8.22402 12.2937 8.16704Z" fill="#FF8127"/>
<path d="M20.3084 5.71094C20.416 6.38833 19.6943 7.19866 18.884 7.17334C18.042 7.14801 17.4659 6.61623 17.4406 5.76159C17.4152 4.84364 18.08 4.26754 18.865 4.23589C19.5993 4.20423 20.4033 4.9386 20.3084 5.71094Z" fill="#FF8127"/>
</svg>
