<svg width="60" height="60" viewBox="0 0 60 60" fill="none" xmlns="http://www.w3.org/2000/svg">
<rect width="60" height="60" fill="url(#paint0_radial_2879_1550)"/>
<path d="M17.2885 19.3219L15.2546 20.3389L14.2377 21.8643V31.5253L15.7631 33.5592L17.797 34.0677V37.627L18.3054 38.1355L19.3224 37.627L24.4071 34.0677H30.5088L34.0682 34.5761H43.2207V25.4236H33.5597L33.0512 22.8812L32.5427 20.8473L29.4919 19.3219H17.2885Z" fill="black"/>
<path d="M23.6119 18.6372C25.5702 18.6372 27.5285 18.6257 29.4864 18.6424C30.4805 18.6507 31.4185 18.8896 32.2209 19.4919C33.2654 20.2758 33.8647 21.3037 33.9536 22.5944C33.9732 22.8826 33.9724 23.172 33.983 23.4607C33.9929 23.723 34.1325 23.8651 34.4045 23.8759C34.5376 23.8811 34.6708 23.8834 34.8043 23.8834C37.5724 23.8838 40.3405 23.8771 43.1086 23.8854C44.8044 23.8906 46.2204 24.9639 46.6619 26.5499C46.7623 26.9098 46.7725 27.2793 46.7733 27.6475C46.7774 29.8697 46.7635 32.092 46.7799 34.3138C46.7901 35.7513 46.2089 36.8593 44.9424 37.6105C44.5074 37.8685 44.0286 38.0086 43.5153 38.0325C43.0496 38.054 42.9345 38.1599 42.9038 38.6018C42.8624 39.1977 42.8313 39.7949 42.7961 40.3913C42.792 40.4609 42.7912 40.5306 42.7842 40.6003C42.6998 41.4443 42.0604 41.7309 41.3555 41.2225C40.0546 40.2846 38.7619 39.3359 37.4737 38.382C37.1816 38.1655 36.8757 38.0675 36.5083 38.0695C34.8678 38.0791 33.2273 38.0707 31.5873 38.0743C30.6108 38.0763 29.724 37.849 28.9793 37.1949C28.3813 36.6694 27.986 36.038 27.8177 35.2696C27.73 34.8691 27.6264 34.7943 27.2082 34.7943C26.3882 34.7939 25.5677 34.8019 24.7477 34.7935C24.4339 34.7903 24.171 34.8811 23.926 35.0694C22.3904 36.2498 20.845 37.4182 19.3147 38.6054C18.8003 39.0043 18.2579 39.2184 17.6464 38.8924C17.0185 38.5576 16.8845 37.9931 16.9624 37.3274C17.0459 36.6156 17.0607 35.8967 17.1119 35.1813C17.1344 34.866 16.9579 34.7398 16.6711 34.6753C14.9053 34.278 13.8207 33.1943 13.3247 31.5211C13.2472 31.2595 13.2251 30.9924 13.2251 30.7229C13.2251 28.0524 13.2124 25.3819 13.23 22.7114C13.2427 20.789 14.7837 19.0819 16.7309 18.7527C17.2294 18.6683 17.725 18.634 18.2284 18.6352C20.0233 18.6396 21.8178 18.6368 23.6119 18.6372ZM23.5865 19.9983V19.9947C21.7723 19.9947 19.9582 19.994 18.1437 19.9955C17.8569 19.9959 17.5694 19.9967 17.2831 20.0151C15.8523 20.1078 14.7112 21.2225 14.6239 22.6119C14.6014 22.9694 14.5871 23.3285 14.5895 23.6868C14.6055 26.0575 14.5301 28.429 14.6256 30.7985C14.6841 32.2496 15.7634 33.3034 17.2593 33.4368C17.5649 33.4638 17.8737 33.4563 18.1809 33.4662C18.4267 33.4742 18.5692 33.5912 18.5578 33.8385C18.5389 34.2362 18.5344 34.6367 18.4787 35.03C18.3804 35.7231 18.373 36.4194 18.3493 37.1153C18.3456 37.2223 18.3337 37.3485 18.4509 37.4099C18.5819 37.4787 18.6839 37.3836 18.7855 37.3203C18.8457 37.2829 18.9027 37.2399 18.9592 37.1969C20.4092 36.0885 21.8649 34.987 23.3047 33.8659C23.659 33.59 24.0194 33.4495 24.4802 33.4543C26.1608 33.4718 27.8423 33.4587 29.5233 33.4607C30.2081 33.4614 30.843 33.307 31.4042 32.9121C32.3315 32.2596 32.6256 31.3276 32.6268 30.2714C32.6293 27.9103 32.6313 25.5495 32.6248 23.1883C32.6236 22.7405 32.5904 22.2898 32.4216 21.865C31.951 20.6823 30.9503 20.0115 29.5827 20.0015C27.5838 19.9876 25.5849 19.9983 23.5865 19.9983ZM38.2614 32.3937V32.3898C38.4457 32.3898 38.63 32.3894 38.8147 32.3898C39.3775 32.3917 39.464 32.4554 39.6176 32.9702C39.663 33.1231 39.7142 33.2747 39.7613 33.4272C39.8355 33.6661 39.9956 33.7939 40.2565 33.7935C40.6354 33.7931 41.0151 33.803 41.3936 33.7895C41.7475 33.7767 41.854 33.6251 41.7278 33.2962C40.9938 31.3841 40.2545 29.4736 39.5115 27.5647C39.3947 27.2649 39.2223 26.9922 38.9782 26.7701C38.5231 26.3565 37.8903 26.3851 37.4774 26.8386C37.3131 27.0193 37.1898 27.2267 37.1001 27.4509C36.9965 27.7108 36.9002 27.9736 36.8003 28.2347C36.1646 29.8956 35.5289 31.5565 34.8936 33.2178C34.7298 33.6466 34.8248 33.7835 35.2995 33.7923C35.6067 33.7978 35.9143 33.7891 36.2215 33.7919C36.5287 33.7947 36.7253 33.6641 36.8077 33.3703C36.8642 33.1688 36.9359 32.9714 36.9998 32.7715C37.0797 32.5211 37.2541 32.3945 37.5237 32.3937C37.7694 32.3929 38.0156 32.3937 38.2614 32.3937Z" fill="white"/>
<path d="M31.8261 16.0264C31.387 16.0531 31.0192 16.0778 30.6509 16.0973C30.5129 16.1045 30.3322 16.1717 30.2573 16.0221C30.1762 15.86 30.3396 15.749 30.4445 15.6474C31.2301 14.8867 32.1259 14.2768 33.1544 13.8723C35.2852 13.0343 37.3635 13.2206 39.3861 14.2278C39.6229 14.3456 39.8519 14.479 40.0804 14.612C40.4691 14.8381 40.5941 14.8202 40.8808 14.4659C41.1466 14.137 41.4043 13.8018 41.6693 13.4726C41.761 13.3587 41.836 13.1848 42.0183 13.2266C42.2099 13.2708 42.2312 13.4638 42.2427 13.6163C42.2943 14.2923 42.4102 14.9603 42.4926 15.6323C42.6392 16.8286 42.7858 18.0245 42.9308 19.2212C42.9972 19.7698 42.8928 19.8908 42.3353 19.9641C40.4978 20.2057 38.6615 20.4542 36.8241 20.6926C36.6098 20.7205 36.328 20.8431 36.192 20.6329C36.045 20.4056 36.3256 20.2471 36.4472 20.0791C36.6832 19.7539 36.9437 19.4454 37.1923 19.1285C37.3541 18.9219 37.3365 18.7256 37.153 18.5381C36.122 17.4819 34.9645 16.6224 33.4887 16.2247C32.9173 16.0702 32.3368 16.0643 31.8261 16.0264Z" fill="white"/>
<path d="M27.1083 45.7935C25.8364 45.7717 24.762 45.5411 23.727 45.1303C23.278 44.9524 23.1462 44.9898 22.9037 45.4034C22.6854 45.7752 22.4892 46.1594 22.277 46.5348C22.2094 46.6539 22.1418 46.8043 21.9644 46.7761C21.8084 46.7514 21.7768 46.6029 21.7404 46.4807C21.1772 44.5964 20.6148 42.7118 20.0573 40.826C19.9574 40.4876 20.0352 40.3391 20.3813 40.2372C22.3233 39.6655 24.2677 39.101 26.2116 38.5353C26.3296 38.5011 26.4623 38.462 26.559 38.5648C26.6724 38.685 26.5872 38.812 26.5258 38.9235C26.3034 39.3275 26.0695 39.7256 25.8495 40.1309C25.6669 40.4677 25.7033 40.6154 26.0109 40.8507C27.2737 41.8161 28.6803 42.4542 30.3019 42.541C31.1031 42.584 31.8941 42.4483 32.6666 42.2245C32.8292 42.1776 33.0459 42.0219 33.1688 42.2182C33.2769 42.3909 33.0807 42.5486 32.9738 42.6855C31.7511 44.2501 30.2036 45.3317 28.1794 45.6821C27.7775 45.751 27.3655 45.7677 27.1083 45.7935Z" fill="white"/>
<path d="M21.1956 22.7194C21.5237 22.7194 21.8518 22.7182 22.1799 22.7198C22.4437 22.721 22.6161 22.6195 22.6346 22.3444C22.6554 22.0319 22.8406 21.9088 23.1441 21.9144C23.2567 21.9164 23.3698 21.9132 23.4824 21.9136C24.0223 21.9148 24.0338 21.9192 24.1681 22.4188C24.2336 22.6617 24.4118 22.7182 24.6342 22.7186C25.2495 22.7198 25.8643 22.719 26.4795 22.721C26.9923 22.7226 27.0865 22.8141 27.0943 23.3157C27.0968 23.475 27.0935 23.6346 27.0919 23.7939C27.0894 24.0359 27.0001 24.2174 26.7412 24.2935C26.5541 24.3484 26.4664 24.4937 26.4263 24.6681C26.1551 25.8517 25.5575 26.874 24.7969 27.8191C24.5245 28.1579 24.5359 28.3024 24.8493 28.6237C25.494 29.2841 26.2149 29.8562 26.9891 30.3682C27.4773 30.691 27.4925 30.7989 27.1689 31.287C26.7433 31.9287 26.7064 31.9327 26.0568 31.4928C25.2556 30.9498 24.5052 30.3499 23.824 29.6683C23.5017 29.3454 23.3755 29.3446 23.0204 29.6369C22.4334 30.1198 21.8391 30.5935 21.2149 31.0306C20.8765 31.2675 20.7225 31.2472 20.4718 30.9195C19.8435 30.0995 19.9975 30.1444 20.6226 29.6806C21.1362 29.2997 21.6437 28.9115 22.1209 28.4879C22.4678 28.1806 22.4916 28.0476 22.2483 27.6611C21.7527 26.8744 21.3885 26.032 21.0842 25.1614C20.9863 24.8811 20.9965 24.6562 21.2812 24.4913C21.3386 24.4579 21.4217 24.4205 21.3939 24.3349C21.3685 24.2573 21.2804 24.2573 21.212 24.2457C20.8864 24.192 20.5574 24.2186 20.2298 24.2099C19.8386 24.1991 19.7325 24.102 19.7227 23.7318C19.7174 23.5327 19.7223 23.3333 19.7264 23.1342C19.7317 22.8663 19.8816 22.7301 20.1503 22.7254C20.4989 22.7194 20.8475 22.7238 21.196 22.7238L21.1956 22.7194ZM23.6811 24.2159V24.2202C23.3735 24.2202 23.0655 24.2103 22.7587 24.2238C22.5448 24.233 22.3949 24.3385 22.4617 24.573C22.6669 25.2967 22.954 25.9894 23.3628 26.628C23.4988 26.8402 23.6795 26.8469 23.8384 26.6503C24.3254 26.0483 24.6912 25.3831 24.8702 24.6323C24.9345 24.362 24.8288 24.233 24.5417 24.2186C24.2558 24.2047 23.9682 24.2159 23.6811 24.2159Z" fill="white"/>
<path d="M38.2827 31.0688C37.5237 31.0728 37.463 30.9944 37.6932 30.3017C37.8157 29.9326 37.9386 29.5636 38.0684 29.1969C38.1041 29.097 38.1422 28.97 38.2827 28.9756C38.4031 28.9804 38.4416 29.0938 38.4735 29.1862C38.6386 29.6671 38.8078 30.1472 38.9548 30.6333C39.038 30.9088 38.9229 31.0422 38.6202 31.0668C38.5083 31.0764 38.3953 31.0688 38.2827 31.0688Z" fill="white"/>
<defs>
<radialGradient id="paint0_radial_2879_1550" cx="0" cy="0" r="1" gradientUnits="userSpaceOnUse" gradientTransform="translate(30 30) rotate(-90) scale(30)">
<stop/>
<stop offset="1" stop-opacity="0"/>
</radialGradient>
</defs>
</svg>
