<svg width="62" height="76" viewBox="0 0 62 76" fill="none" xmlns="http://www.w3.org/2000/svg">
<circle cx="31.775" cy="30.2242" r="16.275" fill="white"/>
<path d="M29.5325 0C48.2323 0.0367474 62.22 14.0191 61.9974 30.9597C61.9046 38.0887 59.326 44.5195 55.7085 50.5644C50.1616 59.8432 42.8153 67.6152 34.5599 74.5421C32.4265 76.3244 29.718 76.453 27.6588 74.7075C17.5483 66.1821 8.58797 56.7012 3.17097 44.4644C-2.74692 31.1985 -0.279589 17.7857 9.7196 8.39678C15.6931 2.7928 22.8911 0.0918685 29.5325 0ZM18.2532 30.776C18.2718 37.7396 23.93 43.3619 30.9424 43.3619C38.029 43.3803 43.7243 37.7212 43.7057 30.6657C43.6872 23.7021 38.029 18.0797 31.0166 18.0613C23.9671 18.0246 18.2347 23.7388 18.2532 30.776Z" fill="#FF0000"/>
</svg>
