<svg width="40" height="40" viewBox="0 0 40 40" fill="none" xmlns="http://www.w3.org/2000/svg">
<path d="M40 20.005C40 31.0167 31.0312 39.99 20.035 40C8.96879 40 0.00999584 31.0667 8.32409e-06 20.015C-0.00997919 8.90333 8.9688 -0.00998411 20.1648 8.39354e-06C31.0512 0.0100009 40 9.03323 40 20.005ZM23.0911 24.1619C23.0911 22.643 23.1011 21.1242 23.0911 19.6053C23.0812 17.7367 21.7528 16.3877 19.965 16.3977C18.2172 16.4077 16.9089 17.7667 16.9089 19.6153C16.8989 22.613 16.8989 25.6108 16.9089 28.6085C16.9189 30.5071 18.2072 31.8361 20.005 31.8361C21.7828 31.8361 23.0911 30.4771 23.1011 28.5986C23.0911 27.1297 23.0911 25.6408 23.0911 24.1619ZM19.975 14.3393C21.6629 14.3492 23.0612 12.9703 23.0812 11.2716C23.1011 9.54285 21.7229 8.13391 20.005 8.12391C18.2871 8.11392 16.8989 9.51287 16.8989 11.2416C16.8989 12.9403 18.2772 14.3293 19.975 14.3393Z" fill="white"/>
</svg>
