<svg width="38" height="25" viewBox="0 0 38 25" fill="none" xmlns="http://www.w3.org/2000/svg">
<path d="M38 12.5224C37.961 13.569 37.5227 14.42 36.6559 15.0362C32.2533 18.1564 27.8605 21.2863 23.4482 24.3967C22.2112 25.2673 20.7696 25.1597 19.669 24.2011C18.5975 23.2621 18.3053 21.7852 18.9969 20.4549C20.2923 17.9803 21.6073 15.5252 22.9514 13.08C23.1949 12.6398 23.1657 12.3268 22.9417 11.9062C21.656 9.54897 20.3897 7.17215 19.1235 4.79533C18.3248 3.29882 18.5099 1.8512 19.6203 0.833966C20.7793 -0.222398 22.2209 -0.261523 23.6527 0.745935C27.9384 3.77809 32.2046 6.82003 36.4903 9.8424C37.4351 10.4977 37.9708 11.3585 38 12.5224Z" fill="white"/>
<path d="M19.3572 12.5121C19.3572 13.5587 18.9286 14.3901 18.1007 14.9867C13.6689 18.146 9.22738 21.3053 4.76638 24.4353C3.55859 25.2863 2.11705 25.1493 1.05537 24.2006C-0.0355355 23.2322 -0.318001 21.8042 0.383293 20.4642C1.67874 17.9895 2.99366 15.5345 4.33781 13.0892C4.57157 12.649 4.56183 12.336 4.32807 11.9057C2.99366 9.47015 1.67874 7.03464 0.402773 4.58936C-0.619947 2.61357 0.461214 0.442151 2.62354 0.0509046C3.30535 -0.0762503 3.96768 0.0313423 4.51313 0.412807C9.12998 3.66993 13.7371 6.92705 18.3345 10.2233C19.0747 10.7515 19.3572 11.5927 19.3572 12.5121Z" fill="white"/>
</svg>
