<svg width="40" height="40" viewBox="0 0 40 40" fill="none" xmlns="http://www.w3.org/2000/svg">
<path d="M25.5815 20.0347C25.5815 24.7688 25.5926 29.5028 25.5815 34.2369C25.5704 37.6231 23.0096 40.1182 19.7474 39.9957C17.0975 39.8954 14.8262 37.8236 14.5034 35.1948C14.4588 34.8606 14.4254 34.5265 14.4254 34.1812C14.4254 24.7354 14.4143 15.2895 14.4254 5.84374C14.4254 2.9699 16.14 0.742111 18.7119 0.151748C22.3082 -0.672532 25.5592 1.95625 25.5815 5.73235C25.6038 10.5109 25.5815 15.2673 25.5815 20.0347Z" fill="white"/>
<path d="M20.0079 14.4318C24.7398 14.4318 29.4717 14.4206 34.2147 14.4318C37.6328 14.4429 40.149 17.0383 39.9931 20.3354C39.8707 22.9865 37.7664 25.2254 35.1388 25.5261C34.7491 25.5707 34.3594 25.593 33.9697 25.593C24.6619 25.593 15.3428 25.6041 6.03497 25.593C3.26265 25.593 1.19176 24.234 0.345587 21.9171C-0.990472 18.2301 1.70391 14.4652 5.73436 14.4318C10.4885 14.4095 15.2538 14.4318 20.0079 14.4318Z" fill="white"/>
</svg>
