<svg width="25" height="28" viewBox="0 0 25 28" fill="none" xmlns="http://www.w3.org/2000/svg">
<path d="M25 27.9828C22.8067 26.5111 20.2207 25.4074 17.3639 24.7923C15.7799 24.4531 14.1484 24.2807 12.5034 24.2807C7.87977 24.2807 3.47279 25.6258 0 28C2.81614 24.0795 4.46791 19.7048 5.23964 15.0024C5.41565 13.9619 5.49689 12.9157 5.57812 11.8637C5.61197 11.3406 5.40211 11.2083 4.8267 11.2313C4.06851 11.2658 3.29678 11.2428 2.53182 11.2371C1.99702 11.2371 1.53669 11.0934 1.3133 10.645C1.07636 10.1851 1.23206 9.78843 1.63147 9.42052C4.92824 6.437 8.21825 3.43623 11.515 0.452702C12.1784 -0.150901 12.8216 -0.150901 13.485 0.452702C16.7885 3.43623 20.0718 6.437 23.3685 9.42052C23.7679 9.78843 23.9236 10.1851 23.6935 10.6507C23.4633 11.0934 23.003 11.2371 22.4682 11.2371C21.6491 11.2428 20.8299 11.2543 20.0176 11.2371C19.5843 11.2256 19.4083 11.3348 19.4286 11.7315C19.7807 17.641 21.4934 23.1079 25 27.9828Z" fill="#FF6900"/>
</svg>
