<svg width="29" height="28" viewBox="0 0 29 28" fill="none" xmlns="http://www.w3.org/2000/svg">
<path d="M11.5583 5.08413C10.5222 4.05347 9.50784 3.03909 8.49345 2.0247C7.79911 1.33036 7.6852 0.760785 8.13543 0.294276C8.59109 -0.172233 9.18236 -0.0637427 9.86043 0.614323C11.1243 1.87824 12.3991 3.13673 13.6467 4.41692C13.9234 4.69899 14.0807 4.71526 14.3682 4.42234C15.7026 3.05536 17.0642 1.7155 18.4149 0.364795C18.8109 -0.0311956 19.2611 -0.123413 19.7385 0.180361C20.1562 0.446163 20.2213 0.858427 20.1019 1.30866C20.0368 1.55277 19.8416 1.7155 19.668 1.88909C18.6102 2.94687 17.5524 4.00465 16.3807 5.17635C16.7225 5.17635 16.9177 5.17635 17.1076 5.17635C19.0767 5.17635 21.0512 5.17092 23.0203 5.17635C25.814 5.1872 27.9675 7.23767 28 10.0259C28.0434 14.3763 28.0434 18.7268 28 23.0719C27.9729 25.8384 25.8682 27.9322 23.1017 27.9431C17.0425 27.9756 10.9887 27.9756 4.92954 27.9431C2.13591 27.9268 0.0366155 25.8058 0.020342 23.0122C-0.00678066 18.7051 -0.00678066 14.3926 0.020342 10.0855C0.0420401 7.26479 2.18473 5.18177 5.00006 5.17092C6.96916 5.1655 8.94368 5.17092 10.9128 5.1655C11.1081 5.17092 11.3142 5.23602 11.5583 5.08413ZM14.0048 7.1346C11.0592 7.1346 8.11373 7.1346 5.16822 7.1346C3.18826 7.1346 1.9786 8.33885 1.97317 10.3242C1.96775 14.4903 1.96775 18.6563 1.97317 22.8223C1.9786 24.7969 3.19369 26.0065 5.17907 26.0065C11.0701 26.0119 16.9611 26.0119 22.8576 26.0065C24.8375 26.0065 26.0472 24.786 26.0526 22.8061C26.0581 18.64 26.0635 14.474 26.0526 10.3079C26.0472 8.328 24.8321 7.1346 22.8413 7.1346C19.8958 7.12918 16.9503 7.1346 14.0048 7.1346Z" fill="#FF8127"/>
<path d="M12.6595 11.8646C13.0175 11.8374 13.3972 11.9622 13.7661 12.1466C15.0517 12.7921 16.3482 13.4268 17.6284 14.0832C19.3967 14.9891 19.5324 17.1101 17.8942 18.2275C16.6031 19.1063 15.3012 19.9742 13.9885 20.8259C12.3015 21.9162 10.3486 20.9072 10.2944 18.8947C10.251 17.3325 10.2618 15.7648 10.2944 14.2025C10.3269 12.8355 11.3034 11.8754 12.6595 11.8646ZM12.7137 13.8282C12.2581 13.8228 12.2526 14.1266 12.2526 14.4195C12.2472 15.8407 12.2472 17.262 12.2526 18.6832C12.2526 18.9056 12.231 19.1497 12.4751 19.269C12.7192 19.3938 12.8982 19.2094 13.0772 19.09C14.276 18.2926 15.4802 17.4952 16.6736 16.6924C17.2378 16.3127 17.2215 16.0686 16.6085 15.7539C15.4314 15.1572 14.2543 14.5714 13.0718 13.9855C12.947 13.9259 12.8168 13.8716 12.7137 13.8282Z" fill="#FF8127"/>
</svg>
