<svg width="31" height="23" viewBox="0 0 31 23" fill="none" xmlns="http://www.w3.org/2000/svg">
<path d="M15.0474 0.599609C18.3082 0.668257 21.5621 0.736905 24.816 1.04582C27.7335 1.32041 29.5253 2.83753 29.8548 6.17383C30.2186 9.89455 30.2529 13.6221 29.7518 17.336C29.388 20.0407 27.8228 21.5578 25.0975 21.8324C19.6468 22.3885 14.1824 22.3954 8.71804 22.1139C7.37254 22.0453 6.02704 21.9835 4.69527 21.7501C2.27199 21.3244 0.892165 20.0682 0.514601 17.6586C-0.123826 13.5054 -0.137555 9.33164 0.535195 5.17843C0.933354 2.71397 2.56718 1.35474 5.04537 1.07328C8.36794 0.709446 11.7111 0.675122 15.0474 0.599609ZM5.18953 3.42104C3.76165 3.60639 3.04771 4.29974 2.79372 5.72762C2.6221 6.72988 2.54658 7.739 2.50539 8.75499C2.38869 11.3705 2.38869 13.986 2.70447 16.5946C2.95847 18.6815 3.52825 19.2307 5.60142 19.5121C5.81423 19.5396 6.02704 19.5739 6.23985 19.5945C11.0521 19.9789 15.8712 20.0407 20.6971 19.8142C22.2966 19.7387 23.8961 19.7112 25.475 19.3954C26.4773 19.1964 27.0814 18.5785 27.3148 17.59C27.5757 16.4642 27.6443 15.3109 27.6924 14.1645C27.8022 11.3911 27.8502 8.6177 27.4178 5.86491C27.1638 4.23795 26.4841 3.64758 24.8366 3.42791C21.0335 2.91991 13.0429 2.41878 5.18953 3.42104Z" fill="#FF8127"/>
<path d="M20.3264 11.4526C17.6491 12.9972 15.068 14.4938 12.4868 15.9834C11.9308 16.3061 12.1161 15.7912 12.1161 15.6059C12.1024 13.1483 12.1092 10.6907 12.1092 8.23305C12.1092 7.88295 12.1161 7.53284 12.1092 7.18274C12.1024 6.88755 12.1436 6.7228 12.4937 6.92874C15.068 8.42527 17.656 9.90806 20.3264 11.4526Z" fill="#FF8127"/>
</svg>
